<?xml version="1.0" encoding="utf-8"?>
<svg baseProfile="tiny" fill="#6f9c76" height="800" stroke="#ffffff" stroke-linecap="round" stroke-linejoin="round" stroke-width="1.5" version="1.2" viewBox="0 0 400 800" width="1000" xmlns="http://www.w3.org/2000/svg">
  <g id="features" style="" transform="matrix(1.359564, 0, 0, 1.359564, 4.403777, -0.101756)">
    <path d="M 199.129 389.902 L 195.266 393.282 L 195.025 393.765 L 194.301 395.213 L 194.059 395.937 L 193.335 399.8 L 193.094 402.214 L 193.335 403.421 L 193.335 404.386 L 193.818 405.111 L 194.301 405.352 L 194.783 405.835 L 195.266 406.559 L 194.783 408.249 L 190.921 413.56 L 189.473 419.112 L 188.507 420.56 L 189.714 422.009 L 189.473 423.216 L 188.748 424.423 L 187.3 425.871 L 188.507 426.354 L 191.162 428.285 L 200.336 440.114 L 200.818 440.838 L 201.301 442.286 L 201.543 443.01 L 202.267 443.735 L 203.715 444.7 L 204.198 445.183 L 207.819 454.356 L 208.543 455.08 L 208.302 455.322 L 207.578 455.805 L 206.853 456.046 L 205.405 455.805 L 204.439 455.08 L 203.715 454.356 L 202.991 452.666 L 202.75 451.942 L 201.784 449.77 L 201.543 448.804 L 201.301 448.08 L 200.818 447.597 L 198.646 446.631 L 196.715 444.7 L 196.473 443.976 L 196.232 443.252 L 195.99 442.286 L 195.749 441.562 L 195.266 440.838 L 194.783 440.355 L 194.783 440.114 L 194.542 439.389 L 194.542 439.148 L 194.301 438.665 L 193.576 438.665 L 192.852 438.665 L 190.68 439.631 L 190.197 439.631 L 189.473 439.872 L 186.576 441.321 L 183.679 442.286 L 183.679 443.01 L 183.679 443.735 L 183.196 444.7 L 182.472 445.666 L 181.748 446.39 L 181.265 446.873 L 180.058 447.597 L 179.817 448.08 L 177.403 449.287 L 175.954 450.977 L 174.747 452.666 L 174.506 453.391 L 173.54 453.632 L 169.678 453.632 L 167.747 452.908 L 166.057 452.666 L 160.263 452.425 L 159.056 452.184 L 153.504 449.045 L 151.09 448.08 L 146.745 447.597 L 139.261 444.217 L 137.33 441.803 L 134.675 440.838 L 133.951 440.596 L 132.985 440.596 L 131.054 441.562 L 130.33 441.562 L 129.605 441.321 L 128.64 440.596 L 127.674 439.389 L 127.191 439.389 L 125.984 439.148 L 124.053 439.389 L 117.535 439.148 L 117.053 440.114 L 113.914 437.7 L 112.225 436.975 L 111.5 436.975 L 110.535 436.975 L 109.811 436.734 L 107.879 435.527 L 106.672 434.561 L 104.983 433.837 L 104.258 433.596 L 104.258 432.63 L 105.707 430.216 L 106.19 428.285 L 105.707 427.319 L 104.983 426.837 L 103.776 426.354 L 103.293 425.63 L 103.293 425.147 L 103.776 424.664 L 103.776 423.94 L 102.569 421.043 L 102.569 420.319 L 102.327 419.836 L 101.844 419.112 L 100.879 417.905 L 99.189 415.732 L 98.223 415.491 L 96.775 415.732 L 94.602 417.181 L 93.395 417.663 L 90.981 417.663 L 89.774 417.181 L 89.05 416.698 L 88.567 416.215 L 88.326 415.491 L 87.602 415.249 L 86.878 415.008 L 86.395 415.491 L 86.636 415.974 L 86.878 416.698 L 86.636 417.422 L 86.153 417.663 L 83.981 416.939 L 81.567 416.698 L 78.187 414.525 L 75.532 414.284 L 75.049 411.387 L 74.808 410.663 L 74.325 409.939 L 74.325 408.732 L 74.325 408.007 L 77.463 403.904 L 84.705 398.834 L 86.153 397.144 L 86.878 395.937 L 87.119 394.489 L 86.878 393.765 L 87.843 392.075 L 87.602 390.868 L 87.119 390.627 L 83.498 389.902 L 87.602 386.281 L 91.464 385.557 L 92.43 384.833 L 94.361 383.143 L 95.085 382.902 L 96.292 382.902 L 96.775 382.66 L 97.258 382.419 L 97.741 382.178 L 98.223 381.453 L 98.223 380.729 L 98.465 380.246 L 99.189 380.246 L 100.637 380.729 L 101.844 380.971 L 102.81 380.488 L 103.534 380.488 L 104.017 380.729 L 104.5 380.246 L 104.741 379.764 L 105.224 379.281 L 105.707 379.281 L 106.431 379.764 L 108.604 382.178 L 109.328 382.902 L 112.225 383.385 L 113.19 383.626 L 113.673 384.35 L 113.914 385.074 L 114.156 385.557 L 114.397 386.04 L 114.88 386.281 L 115.363 386.04 L 115.846 386.281 L 116.328 387.73 L 116.57 388.213 L 118.018 389.178 L 119.467 387.73 L 119.949 386.04 L 119.949 385.074 L 119.467 384.35 L 118.501 384.109 L 118.018 384.109 L 116.57 382.419 L 115.846 381.453 L 116.087 380.729 L 116.57 378.798 L 116.087 377.832 L 115.604 377.591 L 114.639 377.35 L 110.052 375.418 L 109.328 374.936 L 108.845 374.211 L 108.604 373.487 L 108.845 372.763 L 109.328 372.039 L 109.811 371.315 L 110.293 370.349 L 110.535 369.142 L 110.535 367.452 L 110.776 366.245 L 111.259 365.521 L 111.5 365.521 L 112.707 365.521 L 113.432 365.038 L 114.156 363.59 L 115.846 362.141 L 117.294 361.417 L 118.018 360.934 L 118.501 360.934 L 120.915 360.693 L 122.363 361.176 L 122.363 361.9 L 122.122 362.624 L 121.881 364.073 L 122.122 365.521 L 122.846 366.245 L 123.329 366.004 L 123.57 365.28 L 123.57 364.555 L 123.57 364.073 L 123.812 363.831 L 123.812 363.59 L 124.777 363.348 L 126.226 363.107 L 126.95 363.348 L 127.433 363.59 L 129.364 365.762 L 129.605 366.728 L 129.847 368.418 L 129.605 369.625 L 130.088 369.866 L 132.261 370.108 L 132.985 369.866 L 133.709 369.625 L 134.192 369.142 L 134.675 368.418 L 136.123 367.452 L 138.054 366.969 L 139.02 367.935 L 142.882 373.246 L 145.538 374.936 L 146.262 375.177 L 147.469 375.177 L 148.193 374.936 L 149.883 375.177 L 152.78 373.97 L 153.504 373.246 L 154.952 371.315 L 155.677 371.556 L 157.125 372.28 L 157.849 372.522 L 158.573 372.039 L 159.539 372.039 L 160.263 372.28 L 162.194 373.004 L 162.919 372.763 L 163.401 372.522 L 163.884 372.28 L 164.367 371.315 L 164.85 370.59 L 166.057 369.383 L 167.264 369.142 L 169.195 368.659 L 170.402 368.176 L 171.368 367.452 L 171.609 366.728 L 171.609 366.004 L 171.368 365.521 L 170.885 364.555 L 171.85 363.59 L 172.333 363.831 L 172.575 363.59 L 172.816 363.59 L 173.057 364.797 L 176.678 366.245 L 178.127 367.694 L 178.61 368.659 L 178.851 370.59 L 179.092 371.315 L 179.092 372.522 L 181.024 374.211 L 181.748 376.384 L 181.989 378.074 L 183.196 379.764 L 182.713 381.453 L 183.196 382.419 L 184.403 384.592 L 185.127 385.316 L 186.576 386.04 L 188.024 386.04 L 188.507 386.281 L 189.714 385.799 L 191.645 383.867 L 193.335 382.178 L 195.99 381.453 L 197.68 381.453 L 198.646 381.936 L 199.611 382.419 L 200.094 383.385 L 200.094 384.833 L 199.853 385.557 L 198.646 387.488 L 198.404 388.213 L 198.404 389.178 L 199.129 389.902 Z" id="PT07" name="Évora" style="fill: rgb(182, 106, 246);"/>
    <path d="M 199.129 389.902 L 198.404 389.178 L 198.404 388.213 L 198.646 387.488 L 199.853 385.557 L 200.094 384.833 L 200.094 383.385 L 199.611 382.419 L 198.646 381.936 L 197.68 381.453 L 195.99 381.453 L 193.335 382.178 L 191.645 383.867 L 189.714 385.799 L 188.507 386.281 L 188.024 386.04 L 186.576 386.04 L 185.127 385.316 L 184.403 384.592 L 183.196 382.419 L 182.713 381.453 L 183.196 379.764 L 181.989 378.074 L 181.748 376.384 L 181.024 374.211 L 179.092 372.522 L 179.092 371.315 L 178.851 370.59 L 178.61 368.659 L 178.127 367.694 L 176.678 366.245 L 173.057 364.797 L 172.816 363.59 L 172.575 363.59 L 172.333 363.831 L 171.85 363.59 L 170.885 364.555 L 171.368 365.521 L 171.609 366.004 L 171.609 366.728 L 171.368 367.452 L 170.402 368.176 L 169.195 368.659 L 167.264 369.142 L 166.057 369.383 L 164.85 370.59 L 164.367 371.315 L 163.884 372.28 L 163.401 372.522 L 162.919 372.763 L 162.194 373.004 L 160.263 372.28 L 159.539 372.039 L 158.573 372.039 L 157.849 372.522 L 157.125 372.28 L 155.677 371.556 L 154.952 371.315 L 153.504 373.246 L 152.78 373.97 L 149.883 375.177 L 148.193 374.936 L 147.469 375.177 L 146.262 375.177 L 145.538 374.936 L 142.882 373.246 L 139.02 367.935 L 138.054 366.969 L 136.123 367.452 L 134.675 368.418 L 134.192 369.142 L 133.709 369.625 L 132.985 369.866 L 132.261 370.108 L 130.088 369.866 L 129.605 369.625 L 129.847 368.418 L 129.605 366.728 L 129.364 365.762 L 127.433 363.59 L 126.95 363.348 L 126.226 363.107 L 124.777 363.348 L 123.812 363.59 L 123.812 363.831 L 123.57 364.073 L 123.57 364.555 L 123.57 365.28 L 123.329 366.004 L 122.846 366.245 L 122.122 365.521 L 121.881 364.073 L 122.122 362.624 L 122.363 361.9 L 122.363 361.176 L 120.915 360.693 L 118.501 360.934 L 118.018 360.934 L 117.294 361.417 L 115.846 362.141 L 114.156 363.59 L 110.293 362.383 L 109.086 361.417 L 108.845 360.452 L 108.604 359.727 L 107.879 358.52 L 106.914 357.555 L 106.431 356.831 L 106.19 355.865 L 105.948 354.658 L 104.983 353.934 L 104.258 353.21 L 102.086 352.485 L 102.086 350.554 L 104.741 346.45 L 105.948 345.243 L 110.776 341.864 L 115.846 337.036 L 118.018 335.346 L 118.984 332.932 L 119.949 331.725 L 120.915 331.484 L 122.605 331.966 L 123.812 331.484 L 124.536 331.001 L 124.777 330.518 L 125.26 329.794 L 127.191 327.38 L 128.64 325.449 L 128.881 324.724 L 129.123 323.035 L 129.847 322.552 L 133.951 319.655 L 135.882 316.758 L 135.64 316.275 L 135.158 315.31 L 133.951 314.344 L 130.33 310.723 L 132.261 305.895 L 134.192 302.998 L 135.64 301.55 L 136.847 301.067 L 138.537 301.55 L 142.158 303.481 L 143.365 304.688 L 143.365 304.93 L 143.848 304.688 L 144.331 304.447 L 146.021 302.274 L 146.503 301.791 L 148.435 300.826 L 149.642 299.377 L 150.849 297.688 L 152.297 295.998 L 153.987 295.274 L 154.711 294.549 L 155.435 292.86 L 156.642 290.928 L 158.091 289.963 L 160.022 289.963 L 161.47 290.928 L 162.919 291.17 L 164.85 289.48 L 166.057 288.514 L 167.505 287.307 L 169.195 286.825 L 170.161 287.066 L 170.885 288.756 L 173.782 296.481 L 175.23 297.929 L 177.885 301.55 L 179.334 302.998 L 182.231 304.447 L 182.955 305.412 L 183.92 307.826 L 185.127 309.033 L 187.059 309.999 L 190.68 310.965 L 191.404 311.93 L 191.404 314.586 L 190.921 317 L 190.197 318.689 L 189.714 320.379 L 189.714 322.793 L 190.197 325.207 L 190.921 326.414 L 192.611 327.863 L 196.956 333.173 L 195.749 335.346 L 195.508 337.519 L 196.232 339.933 L 197.439 341.622 L 199.611 342.829 L 202.025 343.554 L 204.198 344.519 L 205.164 346.692 L 204.922 347.899 L 203.957 350.071 L 204.198 351.037 L 205.164 351.761 L 206.371 352.485 L 207.578 352.727 L 208.785 352.244 L 210.957 351.037 L 213.13 350.796 L 215.544 351.52 L 217.475 352.727 L 218.923 354.175 L 220.13 356.106 L 220.613 358.52 L 220.13 360.452 L 221.096 361.176 L 221.096 362.141 L 220.613 363.348 L 219.889 364.314 L 216.992 370.108 L 214.82 372.763 L 213.13 374.453 L 214.337 376.625 L 213.854 378.315 L 213.854 380.005 L 213.13 380.488 L 212.164 381.453 L 210.957 382.419 L 209.75 383.143 L 205.646 384.109 L 204.681 384.833 L 204.198 385.799 L 202.991 387.247 L 201.543 388.454 L 200.336 388.937 L 199.129 389.902 Z" id="PT12" name="Portalegre" style="fill: rgb(182, 106, 246);"/>
    <path d="M 115.604 40.355 L 115.363 40.597 L 114.156 40.597 L 105.948 45.183 L 103.776 45.908 L 96.051 46.149 L 94.844 46.632 L 93.637 47.115 L 92.913 47.597 L 91.464 48.804 L 89.774 49.529 L 89.292 49.287 L 88.567 49.287 L 87.843 49.287 L 87.36 49.77 L 86.636 50.494 L 86.395 51.218 L 86.153 52.184 L 85.912 54.115 L 85.912 54.839 L 85.671 55.564 L 84.705 56.529 L 84.464 57.253 L 84.222 57.978 L 84.464 59.185 L 83.015 62.081 L 82.532 61.84 L 81.567 61.599 L 80.601 61.116 L 78.911 60.874 L 76.256 59.909 L 75.532 59.426 L 75.29 59.667 L 74.808 60.15 L 74.325 60.874 L 73.359 60.874 L 69.014 61.116 L 62.496 63.53 L 61.772 63.53 L 60.082 63.288 L 59.599 63.288 L 59.599 61.84 L 58.875 59.667 L 58.634 57.012 L 58.875 55.564 L 60.806 54.839 L 66.359 53.874 L 67.807 53.391 L 69.255 52.184 L 70.462 50.977 L 60.806 53.874 L 58.634 54.357 L 57.668 54.115 L 55.978 53.15 L 54.289 49.287 L 54.289 45.908 L 55.013 40.597 L 54.53 37.217 L 54.771 36.01 L 55.496 35.045 L 61.531 29.734 L 64.669 26.354 L 65.634 22.009 L 66.6 21.285 L 68.531 20.319 L 70.945 19.595 L 72.635 18.388 L 73.359 17.181 L 74.325 14.767 L 75.049 13.56 L 76.497 12.353 L 77.946 12.112 L 81.084 11.87 L 82.774 11.387 L 85.912 9.215 L 87.36 8.491 L 100.879 6.318 L 102.569 5.594 L 104.741 3.663 L 105.465 3.18 L 106.19 2.938 L 107.638 2.938 L 109.328 2.214 L 111.983 0.283 L 112.707 1.49 L 113.432 3.18 L 113.19 8.249 L 113.432 10.18 L 114.639 11.146 L 115.846 10.663 L 117.535 9.939 L 119.225 9.698 L 120.915 10.422 L 122.363 11.87 L 123.088 13.56 L 122.846 15.733 L 121.881 17.181 L 120.432 18.388 L 118.018 19.836 L 115.363 22.492 L 111.983 27.561 L 111.259 29.492 L 111.018 31.906 L 111.983 33.838 L 115.121 35.045 L 115.846 36.01 L 116.087 37.7 L 115.604 40.355 Z" id="PT16" name="Viana do Castelo" style="fill: rgb(182, 106, 246);"/>
    <path d="M 170.161 287.066 L 169.195 286.825 L 167.505 287.307 L 166.057 288.514 L 164.85 289.48 L 162.919 291.17 L 161.47 290.928 L 160.022 289.963 L 158.091 289.963 L 156.642 290.928 L 155.435 292.86 L 154.711 294.549 L 153.987 295.274 L 152.297 295.998 L 150.849 297.688 L 149.642 299.377 L 148.435 300.826 L 147.71 299.619 L 146.986 297.688 L 146.503 296.722 L 144.814 293.825 L 142.882 291.894 L 141.434 290.687 L 139.986 289.721 L 138.296 288.997 L 137.33 288.997 L 136.365 288.756 L 135.64 288.273 L 135.399 287.307 L 135.64 285.618 L 135.399 283.928 L 135.399 283.204 L 135.399 282.238 L 135.158 281.514 L 134.916 280.79 L 134.433 280.307 L 132.261 280.065 L 129.364 279.1 L 127.674 279.583 L 127.191 280.307 L 126.226 286.1 L 125.502 287.307 L 125.019 288.756 L 125.26 289.963 L 125.743 291.894 L 125.984 292.618 L 125.984 293.101 L 124.053 293.825 L 120.915 294.067 L 119.225 294.067 L 116.811 292.618 L 111.983 290.687 L 111.259 289.239 L 111.018 285.135 L 111.018 282.962 L 111.5 281.755 L 111.259 279.824 L 111.5 279.341 L 111.5 278.617 L 111.259 278.134 L 111.018 277.41 L 110.535 276.927 L 109.569 276.444 L 108.362 275.962 L 107.397 275.479 L 106.914 273.789 L 106.431 272.341 L 106.431 271.858 L 107.155 270.892 L 107.638 270.409 L 107.638 269.685 L 107.638 269.202 L 108.121 268.478 L 108.604 267.995 L 112.466 266.788 L 113.432 267.03 L 113.914 266.547 L 114.639 265.581 L 115.363 264.616 L 116.087 264.133 L 116.811 264.133 L 117.777 263.409 L 118.501 262.685 L 120.191 259.305 L 121.639 257.857 L 121.881 257.133 L 122.605 256.65 L 122.846 256.65 L 124.053 256.408 L 125.019 255.201 L 126.95 254.719 L 128.398 254.719 L 128.881 254.236 L 128.881 253.753 L 129.123 253.029 L 129.605 253.029 L 130.812 252.787 L 131.295 252.305 L 131.778 252.063 L 132.502 251.822 L 132.985 252.063 L 133.709 252.305 L 133.951 252.305 L 134.433 252.063 L 135.64 250.373 L 136.123 249.891 L 136.847 249.891 L 138.537 249.891 L 139.503 249.166 L 139.503 248.684 L 139.261 246.994 L 139.503 246.028 L 140.468 245.063 L 142.641 243.856 L 143.848 243.614 L 144.814 243.614 L 145.779 243.856 L 146.503 244.338 L 148.193 245.545 L 148.435 243.373 L 148.193 241.442 L 148.676 240.717 L 149.159 240.476 L 149.642 240.717 L 149.642 240.959 L 150.124 241.442 L 150.607 241.683 L 151.573 241.442 L 153.263 240.235 L 153.987 239.51 L 154.47 238.786 L 154.47 238.303 L 154.47 237.579 L 154.228 236.855 L 153.987 235.648 L 151.573 233.958 L 150.124 232.027 L 149.159 231.303 L 148.676 230.579 L 148.193 229.13 L 148.435 228.165 L 150.366 223.819 L 152.056 223.095 L 153.504 222.854 L 154.711 222.371 L 157.849 219.957 L 160.263 218.991 L 162.436 217.543 L 164.367 215.37 L 166.057 212.956 L 168.229 213.681 L 171.368 213.198 L 172.092 212.474 L 172.816 211.749 L 173.299 210.06 L 173.54 209.335 L 174.747 207.163 L 179.092 203.059 L 182.472 205.714 L 184.645 206.439 L 185.61 206.439 L 188.507 205.473 L 190.197 203.3 L 190.921 203.3 L 191.887 203.059 L 193.335 202.818 L 194.059 202.818 L 195.025 203.3 L 194.301 210.06 L 193.335 213.198 L 192.611 214.163 L 191.887 214.888 L 190.921 216.095 L 190.68 217.06 L 190.921 217.543 L 191.162 218.026 L 191.645 218.267 L 192.369 218.509 L 193.094 218.75 L 195.025 219.233 L 197.197 219.716 L 201.301 218.267 L 205.405 218.267 L 206.612 217.784 L 207.095 217.302 L 207.336 216.336 L 207.819 215.37 L 208.302 214.646 L 209.267 213.681 L 209.75 213.922 L 210.233 214.405 L 210.716 215.37 L 211.44 216.819 L 212.164 217.543 L 214.337 218.026 L 216.268 217.784 L 217.716 217.543 L 218.441 217.543 L 219.165 217.543 L 221.337 218.75 L 222.544 219.716 L 223.51 220.681 L 223.751 221.164 L 223.993 221.164 L 222.786 221.405 L 218.923 223.819 L 217.475 224.544 L 216.751 225.509 L 215.785 228.165 L 215.061 229.613 L 215.785 231.303 L 216.509 235.165 L 217.475 236.614 L 218.441 237.096 L 220.855 237.338 L 221.82 237.821 L 222.786 238.545 L 223.993 240.476 L 225.924 242.89 L 229.304 249.166 L 227.855 251.822 L 227.372 253.029 L 227.614 254.236 L 227.372 255.201 L 226.648 258.098 L 226.407 258.581 L 225.683 259.064 L 225.441 259.788 L 225.441 260.271 L 225.683 261.478 L 225.683 261.961 L 225.441 263.167 L 225.441 264.857 L 225.2 266.064 L 223.027 269.444 L 222.062 269.927 L 220.13 270.651 L 219.406 271.375 L 218.923 272.823 L 218.923 274.03 L 219.406 274.996 L 219.406 275.962 L 219.165 277.169 L 217.958 279.1 L 217.716 280.065 L 217.716 281.031 L 217.958 281.997 L 217.958 282.721 L 216.992 285.135 L 215.785 285.618 L 202.75 287.307 L 200.094 287.307 L 198.163 286.1 L 196.715 286.583 L 193.094 286.342 L 191.645 286.825 L 190.197 287.307 L 188.99 287.79 L 170.161 286.825 L 170.161 287.066 Z" id="PT05" name="Castelo Branco" style="fill: rgb(182, 106, 246);"/>
    <path d="M 223.993 221.164 L 223.751 221.164 L 223.51 220.681 L 222.544 219.716 L 221.337 218.75 L 219.165 217.543 L 218.441 217.543 L 217.716 217.543 L 216.268 217.784 L 214.337 218.026 L 212.164 217.543 L 211.44 216.819 L 210.716 215.37 L 210.233 214.405 L 209.75 213.922 L 209.267 213.681 L 208.302 214.646 L 207.819 215.37 L 207.336 216.336 L 207.095 217.302 L 206.612 217.784 L 205.405 218.267 L 201.301 218.267 L 197.197 219.716 L 195.025 219.233 L 193.094 218.75 L 192.369 218.509 L 191.645 218.267 L 191.162 218.026 L 190.921 217.543 L 190.68 217.06 L 190.921 216.095 L 191.887 214.888 L 192.611 214.163 L 193.335 213.198 L 194.301 210.06 L 195.025 203.3 L 194.059 202.818 L 193.335 202.818 L 191.887 203.059 L 190.921 203.3 L 190.197 203.3 L 188.507 205.473 L 185.61 206.439 L 184.645 206.439 L 182.472 205.714 L 179.092 203.059 L 174.747 207.163 L 173.54 209.335 L 173.299 210.06 L 172.816 211.749 L 172.092 212.474 L 171.368 213.198 L 168.229 213.681 L 166.057 212.956 L 164.367 215.37 L 162.436 217.543 L 160.263 218.991 L 157.849 219.957 L 154.711 222.371 L 153.504 222.854 L 152.056 223.095 L 150.366 223.819 L 149.159 221.647 L 146.745 220.44 L 147.71 218.026 L 148.193 216.336 L 148.676 215.129 L 149.4 214.163 L 151.573 212.956 L 151.573 211.991 L 151.331 211.508 L 150.124 210.301 L 149.642 209.335 L 148.917 205.232 L 148.917 204.266 L 148.435 203.783 L 146.986 203.3 L 146.262 202.818 L 145.538 201.852 L 145.779 200.886 L 146.503 200.404 L 147.228 200.162 L 147.952 199.679 L 148.435 198.955 L 148.676 197.99 L 148.676 197.024 L 148.193 196.3 L 147.469 195.817 L 146.745 193.162 L 147.469 192.437 L 150.124 191.955 L 151.09 191.713 L 153.504 190.023 L 155.918 189.058 L 158.815 187.127 L 162.436 185.678 L 168.229 184.713 L 167.988 182.299 L 169.919 176.022 L 171.126 174.574 L 171.609 171.677 L 170.161 169.504 L 168.229 168.297 L 167.264 166.608 L 168.229 165.401 L 168.471 164.676 L 168.471 163.952 L 168.229 163.228 L 167.747 162.504 L 165.574 160.573 L 164.85 159.848 L 164.608 158.883 L 165.091 158.159 L 166.057 156.71 L 167.022 155.02 L 167.988 151.882 L 168.229 151.399 L 168.954 150.675 L 169.919 150.192 L 172.092 150.192 L 173.057 150.675 L 174.264 151.641 L 177.403 154.779 L 177.885 155.262 L 178.368 155.986 L 179.817 156.227 L 180.782 154.779 L 182.713 150.192 L 182.713 148.985 L 182.472 147.778 L 182.231 147.054 L 181.748 144.882 L 182.955 144.157 L 186.093 145.123 L 188.99 142.468 L 189.714 140.536 L 189.714 139.088 L 189.714 138.364 L 189.231 137.64 L 188.507 137.398 L 187.541 136.674 L 186.817 136.191 L 186.334 134.743 L 186.093 134.019 L 186.334 133.536 L 188.507 133.777 L 189.714 133.053 L 189.231 129.915 L 189.473 127.742 L 190.197 124.363 L 192.611 116.638 L 199.37 116.155 L 202.267 116.879 L 203.957 116.879 L 204.681 115.672 L 208.06 113.258 L 209.026 113.017 L 208.302 115.431 L 207.819 116.155 L 208.06 116.638 L 208.785 117.121 L 209.267 117.362 L 209.992 117.603 L 210.716 117.845 L 210.716 118.81 L 210.233 119.776 L 210.233 120.742 L 210.716 122.431 L 211.199 123.88 L 212.164 125.087 L 219.889 129.191 L 223.751 129.191 L 225.2 129.673 L 224.717 131.846 L 223.751 133.294 L 223.993 134.743 L 224.958 136.191 L 227.614 139.088 L 228.821 141.261 L 230.752 145.847 L 231.476 148.261 L 232.2 149.227 L 233.407 149.71 L 234.373 150.192 L 234.856 151.882 L 234.614 153.331 L 233.166 153.813 L 232.925 156.71 L 233.166 157.434 L 233.407 158.641 L 233.407 159.366 L 233.166 159.848 L 232.925 161.055 L 232.925 163.228 L 233.166 164.918 L 234.132 168.78 L 234.856 172.643 L 235.097 174.574 L 235.097 176.022 L 234.373 177.953 L 232.442 181.816 L 231.959 183.506 L 232.2 185.437 L 232.925 186.644 L 233.89 187.851 L 234.856 189.299 L 235.339 191.23 L 235.097 192.679 L 232.925 195.576 L 231.235 199.679 L 231.959 203.3 L 233.89 206.68 L 236.787 209.577 L 235.339 212.232 L 234.614 212.956 L 230.752 215.853 L 230.269 216.577 L 229.786 217.302 L 229.786 218.267 L 229.786 219.233 L 229.545 219.957 L 227.855 221.164 L 226.165 221.164 L 224.476 220.923 L 223.993 221.164 Z" id="PT09" name="Guarda" style="fill: rgb(182, 106, 246);"/>
    <path d="M 225.2 129.673 L 223.751 129.191 L 219.889 129.191 L 212.164 125.087 L 211.199 123.88 L 210.716 122.431 L 210.233 120.742 L 210.233 119.776 L 210.716 118.81 L 210.716 117.845 L 209.992 117.603 L 209.267 117.362 L 208.785 117.121 L 208.06 116.638 L 207.819 116.155 L 208.302 115.431 L 209.026 113.017 L 208.06 113.258 L 204.681 115.672 L 203.957 116.879 L 202.267 116.879 L 199.37 116.155 L 192.611 116.638 L 190.197 116.879 L 187.3 115.914 L 186.334 114.948 L 183.679 111.086 L 182.231 110.12 L 181.024 110.12 L 181.506 108.672 L 181.748 107.947 L 181.989 107.465 L 182.955 106.982 L 184.162 106.74 L 184.403 106.499 L 184.403 106.016 L 184.162 105.292 L 184.403 104.326 L 184.645 102.637 L 185.369 101.671 L 186.334 100.705 L 186.576 100.223 L 186.334 99.498 L 186.576 98.291 L 188.024 96.602 L 191.162 95.636 L 188.99 94.429 L 188.266 93.463 L 187.541 92.015 L 187.059 89.601 L 187.059 83.807 L 189.955 81.635 L 190.68 81.393 L 191.645 80.911 L 192.369 79.945 L 192.852 78.014 L 194.059 76.083 L 194.783 75.117 L 195.749 74.634 L 196.473 74.634 L 197.197 74.393 L 197.922 74.151 L 198.163 73.427 L 197.922 72.703 L 197.68 71.979 L 197.197 71.255 L 196.715 70.53 L 196.473 69.565 L 196.473 67.875 L 196.715 64.737 L 199.611 55.081 L 201.784 50.494 L 202.508 49.77 L 202.991 49.529 L 203.474 48.804 L 203.715 48.08 L 203.715 46.39 L 203.715 45.425 L 202.025 43.252 L 201.301 41.08 L 201.06 40.114 L 200.818 37.941 L 201.06 35.527 L 201.301 34.32 L 200.577 32.148 L 200.577 31.424 L 201.543 29.975 L 201.784 28.044 L 201.06 24.423 L 201.301 22.733 L 202.025 22.009 L 203.232 21.043 L 204.922 20.078 L 206.129 19.836 L 209.026 21.526 L 211.681 23.94 L 214.337 25.147 L 217.475 23.94 L 219.406 22.25 L 220.372 22.733 L 221.579 23.457 L 223.751 25.147 L 226.165 25.63 L 231.476 25.147 L 233.649 23.699 L 234.132 20.319 L 236.787 20.802 L 239.925 25.63 L 242.581 26.596 L 248.857 26.354 L 251.754 25.389 L 252.961 22.733 L 255.133 23.699 L 256.34 25.147 L 256.582 27.078 L 255.858 32.148 L 256.582 33.113 L 258.272 33.113 L 260.444 34.079 L 259.479 36.252 L 257.306 45.908 L 257.065 46.873 L 256.34 47.839 L 255.858 49.046 L 256.099 50.011 L 256.582 50.977 L 257.065 52.184 L 257.306 54.357 L 257.789 56.529 L 258.996 58.46 L 261.41 59.426 L 262.375 59.185 L 263.582 58.46 L 264.789 57.736 L 265.513 57.012 L 265.996 56.288 L 267.203 56.529 L 274.204 57.978 L 278.549 59.426 L 282.411 62.081 L 286.274 65.944 L 287.481 67.634 L 288.205 68.841 L 284.101 74.876 L 281.929 77.29 L 281.204 78.497 L 281.446 79.462 L 281.687 80.186 L 281.687 81.152 L 278.308 86.463 L 278.308 87.428 L 275.411 87.67 L 274.204 88.153 L 273.238 89.118 L 273.48 89.118 L 273.48 89.842 L 273.48 90.808 L 273.238 91.291 L 272.755 91.532 L 271.79 91.291 L 271.307 91.291 L 268.652 95.877 L 265.755 98.774 L 264.065 99.981 L 262.858 100.947 L 257.789 103.119 L 257.065 103.844 L 251.271 103.844 L 249.823 104.085 L 248.857 105.292 L 245.719 109.879 L 244.995 111.81 L 244.512 112.775 L 241.374 115.431 L 240.167 116.879 L 239.925 117.603 L 240.167 120.5 L 239.442 122.673 L 236.063 127.742 L 234.856 128.949 L 232.442 129.191 L 226.89 128.708 L 225.2 129.673 Z" id="PT04" name="Bragança" style="fill: rgb(182, 106, 246);"/>
    <path d="M 200.577 31.424 L 200.577 32.148 L 201.301 34.32 L 201.06 35.527 L 200.818 37.941 L 201.06 40.114 L 201.301 41.08 L 202.025 43.252 L 203.715 45.425 L 203.715 46.39 L 203.715 48.08 L 203.474 48.804 L 202.991 49.529 L 202.508 49.77 L 201.784 50.494 L 199.611 55.081 L 196.715 64.737 L 196.473 67.875 L 196.473 69.565 L 196.715 70.53 L 197.197 71.255 L 197.68 71.979 L 197.922 72.703 L 198.163 73.427 L 197.922 74.151 L 197.197 74.393 L 196.473 74.634 L 195.749 74.634 L 194.783 75.117 L 194.059 76.083 L 192.852 78.014 L 192.369 79.945 L 191.645 80.911 L 190.68 81.393 L 189.955 81.635 L 187.059 83.807 L 187.059 89.601 L 187.541 92.015 L 188.266 93.463 L 188.99 94.429 L 191.162 95.636 L 188.024 96.602 L 186.576 98.291 L 186.334 99.498 L 186.576 100.223 L 186.334 100.705 L 185.369 101.671 L 184.645 102.637 L 184.403 104.326 L 184.162 105.292 L 184.403 106.016 L 184.403 106.499 L 184.162 106.74 L 182.955 106.982 L 181.989 107.465 L 181.748 107.947 L 181.506 108.672 L 181.024 110.12 L 170.643 113.982 L 166.54 114.465 L 162.919 114.224 L 162.677 114.224 L 161.229 114.224 L 160.022 114.948 L 157.366 116.638 L 155.918 117.362 L 154.228 117.603 L 152.538 117.362 L 151.09 117.121 L 150.124 116.155 L 147.952 114.224 L 146.745 113.5 L 145.055 113.741 L 140.468 116.879 L 140.951 113.982 L 140.951 111.327 L 142.158 106.499 L 141.917 106.258 L 140.71 105.533 L 139.261 102.878 L 138.779 101.188 L 139.261 99.498 L 136.847 97.809 L 135.64 97.084 L 134.916 96.119 L 134.916 95.153 L 134.916 93.946 L 133.468 92.256 L 134.192 90.084 L 134.192 89.601 L 133.951 88.635 L 134.192 88.394 L 134.433 88.153 L 134.916 87.911 L 135.158 86.946 L 136.365 85.014 L 136.606 84.049 L 136.847 83.566 L 136.365 82.6 L 137.089 79.945 L 138.054 78.738 L 138.537 78.497 L 138.779 78.497 L 139.503 78.497 L 140.468 77.772 L 140.951 76.324 L 141.193 76.083 L 142.882 75.117 L 143.848 74.151 L 147.469 68.841 L 147.71 67.392 L 146.262 64.737 L 145.779 64.254 L 144.814 63.771 L 143.124 65.702 L 140.468 66.668 L 139.261 66.427 L 135.882 65.702 L 135.158 65.461 L 134.192 64.978 L 133.226 64.737 L 131.537 64.013 L 131.778 58.702 L 132.019 57.736 L 132.261 56.288 L 132.019 55.564 L 131.778 55.081 L 129.364 53.632 L 128.881 53.391 L 128.157 53.391 L 126.709 54.115 L 125.984 54.115 L 125.26 54.115 L 124.536 54.115 L 123.812 54.115 L 123.329 54.357 L 122.122 54.598 L 120.915 54.598 L 123.088 52.184 L 123.329 51.46 L 123.812 50.494 L 124.777 47.839 L 125.502 46.39 L 126.226 43.011 L 126.467 42.287 L 126.95 41.562 L 127.191 40.838 L 127.191 40.355 L 126.95 40.114 L 127.191 39.873 L 129.847 36.976 L 130.812 35.527 L 131.778 34.32 L 133.226 33.838 L 134.433 34.079 L 136.123 34.079 L 137.089 32.631 L 137.33 30.458 L 137.813 29.251 L 139.503 28.527 L 139.744 31.665 L 140.468 35.045 L 143.124 35.045 L 143.848 34.32 L 144.089 33.596 L 144.572 33.113 L 145.296 32.631 L 147.71 32.872 L 153.263 31.424 L 155.677 30.217 L 157.125 30.699 L 159.539 32.389 L 160.987 33.113 L 165.574 33.355 L 164.367 36.976 L 164.367 38.183 L 165.815 38.907 L 167.264 39.148 L 169.195 38.666 L 170.885 38.183 L 172.333 37.217 L 172.816 36.252 L 172.816 35.527 L 173.057 34.803 L 173.782 34.32 L 174.264 34.32 L 175.713 35.286 L 176.437 35.286 L 177.644 35.769 L 178.851 37.217 L 179.817 39.39 L 180.058 41.321 L 181.265 40.114 L 183.438 37.7 L 184.645 36.976 L 185.852 36.734 L 188.99 36.734 L 190.68 36.493 L 196.715 34.32 L 199.611 32.631 L 200.577 31.424 Z" id="PT17" name="Vila Real" style="fill: rgb(182, 106, 246);"/>
    <path d="M 59.599 63.288 L 60.082 63.288 L 61.772 63.53 L 62.496 63.53 L 69.014 61.116 L 73.359 60.874 L 74.325 60.874 L 74.808 60.15 L 75.29 59.667 L 75.532 59.426 L 76.256 59.909 L 78.911 60.874 L 80.601 61.116 L 81.567 61.599 L 82.532 61.84 L 83.015 62.081 L 84.464 59.185 L 84.222 57.978 L 84.464 57.253 L 84.705 56.529 L 85.671 55.564 L 85.912 54.839 L 85.912 54.115 L 86.153 52.184 L 86.395 51.218 L 86.636 50.494 L 87.36 49.77 L 87.843 49.287 L 88.567 49.287 L 89.292 49.287 L 89.774 49.529 L 91.464 48.804 L 92.913 47.597 L 93.637 47.115 L 94.844 46.632 L 96.051 46.149 L 103.776 45.908 L 105.948 45.183 L 114.156 40.597 L 115.363 40.597 L 115.604 40.355 L 115.604 40.597 L 123.088 41.08 L 126.95 40.114 L 127.191 40.355 L 127.191 40.838 L 126.95 41.562 L 126.467 42.287 L 126.226 43.011 L 125.502 46.39 L 124.777 47.839 L 123.812 50.494 L 123.329 51.46 L 123.088 52.184 L 120.915 54.598 L 122.122 54.598 L 123.329 54.357 L 123.812 54.115 L 124.536 54.115 L 125.26 54.115 L 125.984 54.115 L 126.709 54.115 L 128.157 53.391 L 128.881 53.391 L 129.364 53.632 L 131.778 55.081 L 132.019 55.564 L 132.261 56.288 L 132.019 57.736 L 131.778 58.702 L 131.537 64.013 L 133.226 64.737 L 134.192 64.978 L 135.158 65.461 L 135.882 65.702 L 139.261 66.427 L 140.468 66.668 L 143.124 65.702 L 144.814 63.771 L 145.779 64.254 L 146.262 64.737 L 147.71 67.392 L 147.469 68.841 L 143.848 74.151 L 142.882 75.117 L 141.193 76.083 L 140.951 76.324 L 140.468 77.772 L 139.503 78.497 L 138.779 78.497 L 138.537 78.497 L 138.054 78.738 L 137.089 79.945 L 136.365 82.6 L 136.847 83.566 L 136.606 84.049 L 136.365 85.014 L 135.158 86.946 L 134.916 87.911 L 134.433 88.153 L 134.192 88.394 L 133.951 88.635 L 134.192 89.601 L 134.192 90.084 L 133.468 92.256 L 133.226 93.463 L 132.985 93.946 L 132.744 94.429 L 132.261 94.912 L 131.778 95.153 L 131.295 95.636 L 130.812 96.119 L 130.33 96.602 L 129.605 97.084 L 129.123 97.326 L 128.157 97.567 L 127.191 96.602 L 125.26 95.636 L 124.295 95.877 L 121.639 94.67 L 118.501 92.256 L 118.501 91.049 L 118.26 90.567 L 116.57 88.635 L 112.225 86.946 L 110.776 89.118 L 109.086 90.325 L 106.431 91.532 L 105.707 91.774 L 103.776 92.498 L 103.051 92.498 L 101.844 91.774 L 101.12 91.532 L 97.741 92.015 L 94.844 92.739 L 92.671 92.256 L 92.188 91.774 L 91.464 91.532 L 90.499 91.532 L 88.809 92.015 L 87.36 92.981 L 86.636 93.463 L 85.912 93.946 L 85.188 94.188 L 84.464 94.429 L 79.636 94.429 L 78.67 94.67 L 78.429 94.67 L 77.704 94.188 L 77.222 93.463 L 76.98 91.774 L 76.739 91.049 L 77.463 90.084 L 78.429 89.842 L 78.911 89.601 L 79.153 88.877 L 78.911 88.153 L 77.946 87.428 L 76.98 87.187 L 75.773 86.463 L 74.325 84.773 L 73.601 84.29 L 72.876 83.566 L 72.152 83.325 L 69.98 83.083 L 67.566 82.118 L 65.634 80.911 L 63.462 80.911 L 63.462 80.669 L 62.496 78.014 L 62.255 75.6 L 62.013 73.91 L 61.772 71.979 L 60.565 68.599 L 60.082 65.944 L 59.599 64.013 L 59.599 63.288 Z" id="PT03" name="Braga" style="fill: rgb(182, 106, 246);"/>
    <path d="M 173.782 527.742 L 174.506 528.949 L 175.23 529.673 L 176.678 530.88 L 177.161 531.604 L 177.885 533.535 L 178.368 536.191 L 178.61 538.605 L 178.368 539.812 L 179.817 543.433 L 180.541 552.123 L 181.506 555.744 L 180.782 557.434 L 181.265 559.848 L 182.472 564.676 L 182.713 565.159 L 182.955 565.642 L 183.196 566.124 L 183.92 566.366 L 183.92 566.849 L 183.196 567.814 L 181.748 566.607 L 179.817 566.124 L 177.885 566.124 L 175.954 566.366 L 174.023 567.09 L 170.402 569.504 L 168.954 569.987 L 163.884 573.366 L 163.16 574.332 L 149.883 583.264 L 147.228 585.919 L 145.779 585.919 L 144.572 585.436 L 142.641 584.954 L 137.33 584.954 L 135.64 584.229 L 134.916 585.436 L 133.951 585.436 L 132.985 584.712 L 132.019 584.229 L 132.985 585.678 L 133.226 586.402 L 133.468 587.368 L 131.295 584.471 L 128.157 581.815 L 121.881 578.194 L 118.501 577.47 L 115.604 576.263 L 112.707 576.263 L 105.707 577.229 L 102.569 576.263 L 99.43 575.056 L 96.775 576.263 L 92.913 576.746 L 89.05 575.298 L 89.05 575.539 L 84.222 572.884 L 80.601 572.159 L 76.497 572.642 L 75.29 572.884 L 74.083 573.849 L 71.187 576.746 L 65.876 576.746 L 64.91 576.987 L 62.496 578.436 L 61.531 578.919 L 60.082 579.16 L 58.151 579.643 L 56.22 581.333 L 54.53 580.608 L 52.84 582.298 L 52.116 582.781 L 51.15 583.264 L 49.461 584.712 L 48.495 584.954 L 47.288 584.471 L 46.322 583.505 L 45.357 583.022 L 43.908 583.505 L 44.633 580.367 L 45.115 578.919 L 45.598 578.194 L 48.978 572.884 L 50.185 569.745 L 51.392 567.09 L 50.668 563.952 L 52.116 562.503 L 54.289 560.331 L 55.496 555.503 L 54.771 553.572 L 54.047 551.882 L 55.496 548.985 L 57.91 546.33 L 58.392 543.674 L 59.841 539.812 L 60.565 536.432 L 61.772 537.156 L 63.462 538.363 L 64.669 538.605 L 66.117 539.812 L 66.841 540.777 L 67.807 541.502 L 68.29 541.743 L 71.911 541.984 L 74.325 543.191 L 74.808 543.433 L 75.532 543.674 L 76.015 543.191 L 76.497 542.709 L 76.98 542.226 L 77.704 541.743 L 81.084 541.26 L 82.05 541.502 L 85.429 543.433 L 86.878 543.916 L 90.499 544.64 L 92.188 543.916 L 93.637 543.191 L 94.12 542.226 L 94.12 541.502 L 94.844 540.777 L 95.085 540.295 L 98.465 539.088 L 100.396 538.846 L 101.362 538.605 L 102.327 538.846 L 103.051 538.363 L 104.5 538.122 L 106.672 538.846 L 107.397 540.053 L 107.638 541.743 L 107.879 542.226 L 108.845 543.433 L 110.293 544.157 L 116.328 548.744 L 119.225 549.709 L 120.915 549.709 L 124.295 549.951 L 125.26 549.951 L 126.467 549.468 L 128.398 547.778 L 131.537 546.088 L 132.019 545.847 L 132.019 545.364 L 131.537 544.398 L 131.295 543.916 L 131.295 543.191 L 131.778 542.467 L 132.985 541.743 L 135.64 541.26 L 136.847 541.26 L 139.261 540.777 L 140.468 540.295 L 140.951 539.57 L 141.193 538.846 L 142.641 537.881 L 143.848 537.639 L 144.089 536.915 L 144.572 536.674 L 145.296 536.432 L 146.986 535.467 L 147.469 535.467 L 147.952 535.225 L 148.435 534.742 L 150.124 533.777 L 156.884 530.88 L 161.47 530.88 L 161.953 531.121 L 163.401 531.363 L 163.884 531.604 L 164.608 531.363 L 165.574 530.88 L 167.264 529.19 L 169.195 528.225 L 171.609 528.225 L 173.782 527.742 Z M 135.158 588.092 L 139.744 588.575 L 141.434 587.85 L 143.607 585.678 L 143.848 586.161 L 143.848 586.402 L 144.089 587.368 L 143.607 587.609 L 143.607 588.092 L 141.917 589.057 L 139.744 589.54 L 137.33 589.54 L 135.158 588.816 L 135.158 588.092 Z" id="PT08" name="Faro" style="fill: rgb(182, 106, 246);"/>
    <path d="M 117.053 440.114 L 117.535 439.148 L 124.053 439.389 L 125.984 439.148 L 127.191 439.389 L 127.674 439.389 L 128.64 440.596 L 129.605 441.321 L 130.33 441.562 L 131.054 441.562 L 132.985 440.596 L 133.951 440.596 L 134.675 440.838 L 137.33 441.803 L 139.261 444.217 L 146.745 447.597 L 151.09 448.08 L 153.504 449.045 L 159.056 452.184 L 160.263 452.425 L 166.057 452.666 L 167.747 452.908 L 169.678 453.632 L 173.54 453.632 L 174.506 453.391 L 174.747 452.666 L 175.954 450.977 L 177.403 449.287 L 179.817 448.08 L 180.058 447.597 L 181.265 446.873 L 181.748 446.39 L 182.472 445.666 L 183.196 444.7 L 183.679 443.735 L 183.679 443.01 L 183.679 442.286 L 186.576 441.321 L 189.473 439.872 L 190.197 439.631 L 190.68 439.631 L 192.852 438.665 L 193.576 438.665 L 194.301 438.665 L 194.542 439.148 L 194.542 439.389 L 194.783 440.114 L 194.783 440.355 L 195.266 440.838 L 195.749 441.562 L 195.99 442.286 L 196.232 443.252 L 196.473 443.976 L 196.715 444.7 L 198.646 446.631 L 200.818 447.597 L 201.301 448.08 L 201.543 448.804 L 201.784 449.77 L 202.75 451.942 L 202.991 452.666 L 203.715 454.356 L 204.439 455.08 L 205.405 455.805 L 206.853 456.046 L 207.578 455.805 L 208.302 455.322 L 208.543 455.08 L 209.75 456.287 L 211.199 456.287 L 213.371 455.805 L 215.544 454.839 L 216.509 453.391 L 216.992 453.391 L 217.234 453.632 L 219.406 452.908 L 222.062 452.666 L 223.269 453.391 L 223.51 453.632 L 222.544 456.77 L 221.82 458.46 L 220.613 462.322 L 218.923 465.461 L 218.199 468.84 L 217.475 470.289 L 216.751 472.944 L 214.578 473.185 L 209.509 471.254 L 208.06 471.013 L 207.336 471.978 L 206.371 474.151 L 205.405 475.358 L 204.922 475.841 L 203.715 476.324 L 202.508 476.806 L 201.543 476.565 L 200.336 476.324 L 199.37 476.324 L 198.404 476.806 L 195.508 477.531 L 195.025 478.013 L 195.025 478.979 L 195.266 479.945 L 195.266 481.152 L 194.783 483.083 L 192.852 488.394 L 191.887 492.015 L 189.473 496.36 L 181.506 503.119 L 180.058 505.533 L 178.851 508.671 L 178.127 513.982 L 177.644 515.672 L 176.92 516.637 L 174.747 519.051 L 173.782 519.776 L 174.023 520.258 L 174.023 520.983 L 173.782 521.465 L 173.782 521.948 L 172.816 522.914 L 172.575 523.397 L 172.575 524.604 L 172.575 524.845 L 173.057 524.845 L 173.54 526.293 L 173.54 527.018 L 173.782 527.742 L 171.609 528.225 L 169.195 528.225 L 167.264 529.19 L 165.574 530.88 L 164.608 531.363 L 163.884 531.604 L 163.401 531.363 L 161.953 531.121 L 161.47 530.88 L 156.884 530.88 L 150.124 533.777 L 148.435 534.742 L 147.952 535.225 L 147.469 535.467 L 146.986 535.467 L 145.296 536.432 L 144.572 536.674 L 144.089 536.915 L 143.848 537.639 L 142.641 537.881 L 141.193 538.846 L 140.951 539.57 L 140.468 540.295 L 139.261 540.777 L 136.847 541.26 L 135.64 541.26 L 132.985 541.743 L 131.778 542.467 L 131.295 543.191 L 131.295 543.916 L 131.537 544.398 L 132.019 545.364 L 132.019 545.847 L 131.537 546.088 L 128.398 547.778 L 126.467 549.468 L 125.26 549.951 L 124.295 549.951 L 120.915 549.709 L 119.225 549.709 L 116.328 548.744 L 110.293 544.157 L 108.845 543.433 L 107.879 542.226 L 107.638 541.743 L 107.397 540.053 L 106.672 538.846 L 104.5 538.122 L 103.051 538.363 L 102.327 538.846 L 101.362 538.605 L 100.396 538.846 L 98.465 539.088 L 95.085 540.295 L 94.844 540.777 L 94.12 541.502 L 94.12 542.226 L 93.637 543.191 L 92.188 543.916 L 90.499 544.64 L 86.878 543.916 L 85.429 543.433 L 82.05 541.502 L 81.084 541.26 L 77.704 541.743 L 76.98 542.226 L 76.497 542.709 L 76.015 543.191 L 75.532 543.674 L 74.808 543.433 L 74.325 543.191 L 71.911 541.984 L 68.29 541.743 L 67.807 541.502 L 66.841 540.777 L 66.117 539.812 L 64.669 538.605 L 63.462 538.363 L 61.772 537.156 L 60.565 536.432 L 61.048 534.984 L 61.531 532.087 L 61.772 527.018 L 61.289 524.362 L 60.324 522.672 L 59.117 521.224 L 59.117 519.776 L 60.082 514.948 L 60.565 511.809 L 61.289 509.154 L 62.496 508.43 L 64.91 507.947 L 65.393 505.292 L 65.393 505.05 L 64.669 505.774 L 62.738 506.257 L 60.565 506.257 L 59.841 504.326 L 60.565 498.774 L 61.289 494.67 L 62.013 495.636 L 62.496 496.36 L 62.979 496.601 L 63.703 496.601 L 64.186 496.36 L 64.91 495.877 L 65.634 495.636 L 67.083 496.118 L 67.807 497.084 L 68.048 497.567 L 70.221 500.464 L 71.187 501.912 L 71.428 502.395 L 71.911 502.395 L 72.394 501.912 L 72.635 501.188 L 73.118 500.946 L 73.842 501.188 L 74.566 501.429 L 75.29 502.153 L 76.739 502.636 L 77.704 502.878 L 79.153 502.153 L 79.636 501.429 L 79.877 500.705 L 79.877 499.739 L 80.843 497.325 L 81.084 496.601 L 82.774 494.911 L 83.015 494.187 L 83.257 493.222 L 84.222 492.497 L 85.671 491.773 L 93.395 490.325 L 97.258 491.049 L 99.672 491.049 L 99.913 491.049 L 102.569 492.497 L 103.776 489.359 L 104.258 488.635 L 105.224 485.738 L 105.707 480.669 L 105.707 477.531 L 104.741 475.117 L 104.258 474.151 L 103.051 473.185 L 101.844 473.185 L 100.879 472.944 L 99.913 472.22 L 98.465 470.771 L 96.775 469.323 L 96.534 468.357 L 96.292 467.633 L 96.292 467.15 L 96.534 466.426 L 96.534 465.702 L 96.775 464.978 L 97.016 464.254 L 97.499 463.288 L 98.223 463.288 L 98.706 463.529 L 99.189 463.529 L 99.672 463.529 L 99.913 463.047 L 100.155 462.805 L 100.396 461.598 L 100.637 461.115 L 100.637 460.633 L 100.637 460.15 L 100.879 459.667 L 101.603 459.426 L 102.086 458.943 L 102.569 458.701 L 103.534 459.184 L 104.258 459.667 L 104.741 459.908 L 105.465 459.426 L 105.948 457.494 L 106.19 456.529 L 106.431 456.046 L 107.155 455.563 L 110.293 455.563 L 110.776 454.598 L 111.018 453.391 L 111.742 453.149 L 114.88 452.425 L 116.328 451.701 L 119.467 450.735 L 119.949 449.528 L 119.949 448.804 L 119.949 447.597 L 119.225 444.942 L 117.053 440.114 Z" id="PT02" name="Beja" style="fill: rgb(182, 106, 246);"/>
    <path d="M 83.498 389.902 L 87.119 390.627 L 87.602 390.868 L 87.843 392.075 L 86.878 393.765 L 87.119 394.489 L 86.878 395.937 L 86.153 397.144 L 84.705 398.834 L 77.463 403.904 L 74.325 408.007 L 74.325 408.732 L 74.325 409.939 L 74.808 410.663 L 75.049 411.387 L 75.532 414.284 L 78.187 414.525 L 81.567 416.698 L 83.981 416.939 L 86.153 417.663 L 86.636 417.422 L 86.878 416.698 L 86.636 415.974 L 86.395 415.491 L 86.878 415.008 L 87.602 415.249 L 88.326 415.491 L 88.567 416.215 L 89.05 416.698 L 89.774 417.181 L 90.981 417.663 L 93.395 417.663 L 94.602 417.181 L 96.775 415.732 L 98.223 415.491 L 99.189 415.732 L 100.879 417.905 L 101.844 419.112 L 102.327 419.836 L 102.569 420.319 L 102.569 421.043 L 103.776 423.94 L 103.776 424.664 L 103.293 425.147 L 103.293 425.63 L 103.776 426.354 L 104.983 426.837 L 105.707 427.319 L 106.19 428.285 L 105.707 430.216 L 104.258 432.63 L 104.258 433.596 L 104.983 433.837 L 106.672 434.561 L 107.879 435.527 L 109.811 436.734 L 110.535 436.975 L 111.5 436.975 L 112.225 436.975 L 113.914 437.7 L 117.053 440.114 L 119.225 444.942 L 119.949 447.597 L 119.949 448.804 L 119.949 449.528 L 119.467 450.735 L 116.328 451.701 L 114.88 452.425 L 111.742 453.149 L 111.018 453.391 L 110.776 454.598 L 110.293 455.563 L 107.155 455.563 L 106.431 456.046 L 106.19 456.529 L 105.948 457.494 L 105.465 459.426 L 104.741 459.908 L 104.258 459.667 L 103.534 459.184 L 102.569 458.701 L 102.086 458.943 L 101.603 459.426 L 100.879 459.667 L 100.637 460.15 L 100.637 460.633 L 100.637 461.115 L 100.396 461.598 L 100.155 462.805 L 99.913 463.047 L 99.672 463.529 L 99.189 463.529 L 98.706 463.529 L 98.223 463.288 L 97.499 463.288 L 97.016 464.254 L 96.775 464.978 L 96.534 465.702 L 96.534 466.426 L 96.292 467.15 L 96.292 467.633 L 96.534 468.357 L 96.775 469.323 L 98.465 470.771 L 99.913 472.22 L 100.879 472.944 L 101.844 473.185 L 103.051 473.185 L 104.258 474.151 L 104.741 475.117 L 105.707 477.531 L 105.707 480.669 L 105.224 485.738 L 104.258 488.635 L 103.776 489.359 L 102.569 492.497 L 99.913 491.049 L 99.672 491.049 L 97.258 491.049 L 93.395 490.325 L 85.671 491.773 L 84.222 492.497 L 83.257 493.222 L 83.015 494.187 L 82.774 494.911 L 81.084 496.601 L 80.843 497.325 L 79.877 499.739 L 79.877 500.705 L 79.636 501.429 L 79.153 502.153 L 77.704 502.878 L 76.739 502.636 L 75.29 502.153 L 74.566 501.429 L 73.842 501.188 L 73.118 500.946 L 72.635 501.188 L 72.394 501.912 L 71.911 502.395 L 71.428 502.395 L 71.187 501.912 L 70.221 500.464 L 68.048 497.567 L 67.807 497.084 L 67.083 496.118 L 65.634 495.636 L 64.91 495.877 L 64.186 496.36 L 63.703 496.601 L 62.979 496.601 L 62.496 496.36 L 62.013 495.636 L 61.289 494.67 L 61.531 492.739 L 61.531 489.118 L 60.806 486.462 L 59.599 483.566 L 56.703 483.083 L 53.082 480.91 L 53.323 479.945 L 54.047 479.462 L 54.771 479.22 L 55.496 478.496 L 59.841 468.599 L 61.531 460.633 L 63.462 454.839 L 63.22 448.804 L 62.496 441.803 L 61.772 435.527 L 59.599 431.182 L 57.185 428.768 L 54.53 425.388 L 51.392 422.974 L 48.736 422.009 L 50.185 420.56 L 52.116 421.284 L 55.496 424.181 L 59.358 425.63 L 61.289 426.595 L 61.531 428.044 L 65.152 428.044 L 73.842 430.216 L 78.187 429.009 L 75.532 428.768 L 73.359 428.285 L 66.841 425.147 L 66.117 424.181 L 65.634 422.733 L 65.393 421.284 L 65.634 419.836 L 66.117 418.629 L 66.841 418.146 L 66.841 417.422 L 65.634 416.939 L 64.669 415.491 L 64.427 414.042 L 64.91 412.835 L 63.703 412.594 L 62.013 415.974 L 60.082 416.698 L 60.082 417.422 L 62.255 417.663 L 62.979 419.112 L 62.979 421.043 L 62.255 422.009 L 60.324 421.767 L 58.392 421.284 L 55.496 419.595 L 52.116 418.388 L 47.771 419.353 L 43.908 423.94 L 44.633 424.423 L 39.563 426.354 L 31.114 427.561 L 29.183 428.285 L 27.976 429.251 L 26.286 429.492 L 24.114 429.009 L 23.631 429.009 L 23.389 428.285 L 23.389 427.561 L 23.631 426.837 L 23.872 426.595 L 24.596 425.63 L 27.252 422.974 L 27.735 419.353 L 27.735 414.042 L 25.562 408.973 L 22.907 404.628 L 21.7 401.248 L 23.389 400.524 L 27.493 399.8 L 31.114 399.558 L 33.045 400.765 L 33.77 401.972 L 34.494 401.972 L 33.77 399.8 L 35.218 399.076 L 37.873 398.351 L 39.322 398.11 L 39.322 397.386 L 40.529 395.937 L 41.977 394.489 L 44.391 392.558 L 47.529 389.902 L 48.012 389.661 L 48.495 389.178 L 48.736 388.937 L 49.702 388.695 L 50.668 388.695 L 50.426 390.144 L 50.909 391.834 L 51.633 392.558 L 52.357 392.799 L 53.564 392.799 L 55.254 392.075 L 56.22 391.592 L 57.668 391.109 L 58.634 391.351 L 59.358 391.592 L 60.082 392.799 L 62.496 393.523 L 63.22 393.523 L 64.669 393.041 L 65.876 391.351 L 66.117 390.627 L 67.324 387.488 L 69.738 382.419 L 70.462 382.178 L 70.945 382.419 L 71.428 382.902 L 72.635 383.626 L 75.049 384.592 L 76.739 383.385 L 78.187 382.902 L 78.67 383.143 L 78.67 383.626 L 78.429 384.35 L 78.429 385.316 L 78.429 386.04 L 78.187 387.006 L 78.429 387.971 L 79.394 389.42 L 80.36 389.661 L 81.325 389.42 L 83.498 389.902 Z" id="PT15" name="Setúbal" style="fill: rgb(182, 106, 246);"/>
    <path d="M 50.668 388.695 L 49.702 388.695 L 48.736 388.937 L 48.736 388.213 L 48.012 386.764 L 47.047 384.592 L 46.322 382.178 L 47.047 380.488 L 45.115 380.729 L 44.15 378.798 L 43.667 376.143 L 42.701 373.487 L 46.564 365.521 L 48.736 361.9 L 51.875 359.727 L 53.564 359.245 L 57.427 359.003 L 59.117 358.279 L 62.255 355.865 L 62.255 356.348 L 62.013 356.831 L 61.531 357.072 L 59.841 359.245 L 56.461 360.21 L 56.944 361.176 L 57.668 361.9 L 55.978 364.555 L 55.737 365.521 L 54.771 366.728 L 53.806 368.659 L 50.909 376.867 L 49.702 379.281 L 48.978 380.246 L 47.771 381.695 L 47.771 382.902 L 49.219 384.833 L 49.461 385.316 L 49.943 386.04 L 50.668 388.695 Z M 62.013 354.417 L 58.151 357.313 L 50.668 358.279 L 49.461 359.245 L 47.771 362.383 L 43.426 368.418 L 38.598 378.074 L 35.942 381.212 L 34.977 382.902 L 34.494 384.592 L 34.735 386.764 L 34.977 390.627 L 35.218 393.282 L 34.011 395.937 L 29.424 397.144 L 24.596 398.11 L 18.803 397.627 L 17.354 398.834 L 15.665 400.765 L 12.285 398.593 L 8.423 396.903 L 6.25 396.662 L 2.629 397.144 L 0.698 396.662 L 0.939 394.248 L 1.422 392.316 L 0.215 387.488 L 0.215 385.074 L 0.698 384.109 L 1.905 382.66 L 4.077 380.488 L 6.733 371.556 L 6.491 364.555 L 5.526 360.452 L 6.491 357.796 L 6.733 354.899 L 10.354 348.623 L 11.319 345.485 L 13.009 341.381 L 13.492 337.277 L 13.975 333.656 L 13.492 330.759 L 14.216 330.759 L 17.596 330.759 L 21.217 328.345 L 21.941 327.863 L 23.148 328.104 L 23.631 328.104 L 24.114 328.345 L 24.838 329.311 L 25.562 330.518 L 27.493 337.519 L 28.942 338.726 L 30.873 337.277 L 32.563 335.105 L 34.735 331.725 L 36.425 329.311 L 37.391 328.828 L 37.873 328.587 L 39.08 328.345 L 40.287 328.587 L 41.977 329.311 L 44.391 330.035 L 45.357 332.691 L 45.115 334.38 L 51.15 336.07 L 54.771 335.105 L 55.496 336.794 L 59.841 341.14 L 58.634 342.105 L 57.185 342.588 L 54.771 342.347 L 53.564 342.829 L 52.357 343.795 L 52.357 344.278 L 52.84 345.002 L 53.564 345.243 L 54.047 345.726 L 54.771 347.175 L 55.013 347.899 L 57.668 350.313 L 58.151 350.796 L 60.082 351.52 L 60.565 352.003 L 61.048 352.244 L 61.289 352.968 L 62.013 354.417 Z M 40.287 378.557 L 40.77 378.315 L 40.77 379.039 L 40.287 380.729 L 39.08 382.419 L 37.391 384.109 L 36.908 383.867 L 37.632 381.936 L 38.356 380.246 L 39.322 379.281 L 40.046 378.798 L 40.287 378.557 Z" id="PT11" name="Lisboa" style="fill: rgb(182, 106, 246);"/>
    <path d="M 114.156 363.59 L 113.432 365.038 L 112.707 365.521 L 111.5 365.521 L 111.259 365.521 L 110.776 366.245 L 110.535 367.452 L 110.535 369.142 L 110.293 370.349 L 109.811 371.315 L 109.328 372.039 L 108.845 372.763 L 108.604 373.487 L 108.845 374.211 L 109.328 374.936 L 110.052 375.418 L 114.639 377.35 L 115.604 377.591 L 116.087 377.832 L 116.57 378.798 L 116.087 380.729 L 115.846 381.453 L 116.57 382.419 L 118.018 384.109 L 118.501 384.109 L 119.467 384.35 L 119.949 385.074 L 119.949 386.04 L 119.467 387.73 L 118.018 389.178 L 116.57 388.213 L 116.328 387.73 L 115.846 386.281 L 115.363 386.04 L 114.88 386.281 L 114.397 386.04 L 114.156 385.557 L 113.914 385.074 L 113.673 384.35 L 113.19 383.626 L 112.225 383.385 L 109.328 382.902 L 108.604 382.178 L 106.431 379.764 L 105.707 379.281 L 105.224 379.281 L 104.741 379.764 L 104.5 380.246 L 104.017 380.729 L 103.534 380.488 L 102.81 380.488 L 101.844 380.971 L 100.637 380.729 L 99.189 380.246 L 98.465 380.246 L 98.223 380.729 L 98.223 381.453 L 97.741 382.178 L 97.258 382.419 L 96.775 382.66 L 96.292 382.902 L 95.085 382.902 L 94.361 383.143 L 92.43 384.833 L 91.464 385.557 L 87.602 386.281 L 83.498 389.902 L 81.325 389.42 L 80.36 389.661 L 79.394 389.42 L 78.429 387.971 L 78.187 387.006 L 78.429 386.04 L 78.429 385.316 L 78.429 384.35 L 78.67 383.626 L 78.67 383.143 L 78.187 382.902 L 76.739 383.385 L 75.049 384.592 L 72.635 383.626 L 71.428 382.902 L 70.945 382.419 L 70.462 382.178 L 69.738 382.419 L 67.324 387.488 L 66.117 390.627 L 65.876 391.351 L 64.669 393.041 L 63.22 393.523 L 62.496 393.523 L 60.082 392.799 L 59.358 391.592 L 58.634 391.351 L 57.668 391.109 L 56.22 391.592 L 55.254 392.075 L 53.564 392.799 L 52.357 392.799 L 51.633 392.558 L 50.909 391.834 L 50.426 390.144 L 50.668 388.695 L 49.943 386.04 L 49.461 385.316 L 49.219 384.833 L 47.771 382.902 L 47.771 381.695 L 48.978 380.246 L 49.702 379.281 L 50.909 376.867 L 53.806 368.659 L 54.771 366.728 L 55.737 365.521 L 55.978 364.555 L 57.668 361.9 L 56.944 361.176 L 56.461 360.21 L 59.841 359.245 L 61.531 357.072 L 62.013 356.831 L 62.255 356.348 L 62.255 355.865 L 63.462 354.417 L 64.427 352.727 L 62.013 354.417 L 61.289 352.968 L 61.048 352.244 L 60.565 352.003 L 60.082 351.52 L 58.151 350.796 L 57.668 350.313 L 55.013 347.899 L 54.771 347.175 L 54.047 345.726 L 53.564 345.243 L 52.84 345.002 L 52.357 344.278 L 52.357 343.795 L 53.564 342.829 L 54.771 342.347 L 57.185 342.588 L 58.634 342.105 L 59.841 341.14 L 55.496 336.794 L 54.771 335.105 L 51.15 336.07 L 45.115 334.38 L 45.357 332.691 L 44.391 330.035 L 44.15 326.414 L 43.667 324.242 L 43.908 323.035 L 45.84 319.655 L 47.529 319.172 L 48.254 318.689 L 48.978 317.724 L 51.875 311.689 L 53.082 310.482 L 55.737 309.516 L 61.289 309.033 L 65.634 309.516 L 66.841 308.551 L 67.083 307.826 L 67.083 307.344 L 67.083 307.102 L 67.083 306.861 L 66.359 305.654 L 66.359 304.93 L 66.359 303.964 L 66.841 303.481 L 67.324 303.481 L 68.048 303.964 L 69.014 303.964 L 69.738 303.723 L 71.911 300.826 L 72.394 299.86 L 71.428 296.722 L 71.428 294.791 L 70.462 291.17 L 72.394 289.721 L 73.359 289.239 L 73.842 288.514 L 74.566 288.032 L 75.049 286.825 L 74.566 285.135 L 73.842 284.169 L 73.118 283.686 L 72.635 282.962 L 72.394 282.238 L 72.394 280.79 L 72.152 278.858 L 72.152 277.893 L 72.635 276.927 L 73.118 276.203 L 76.98 274.272 L 78.67 274.755 L 79.636 274.513 L 81.325 273.789 L 85.671 270.651 L 86.878 270.168 L 87.602 270.168 L 88.809 269.202 L 90.016 268.961 L 91.223 273.548 L 91.464 274.996 L 92.188 277.651 L 92.188 278.617 L 92.43 279.1 L 92.671 279.583 L 94.12 279.1 L 97.741 277.893 L 98.948 277.651 L 100.879 276.686 L 102.569 276.927 L 103.051 276.686 L 102.569 274.513 L 102.569 273.548 L 102.569 273.065 L 103.293 273.306 L 106.914 273.789 L 107.397 275.479 L 108.362 275.962 L 109.569 276.444 L 110.535 276.927 L 111.018 277.41 L 111.259 278.134 L 111.5 278.617 L 111.5 279.341 L 111.259 279.824 L 111.5 281.755 L 111.018 282.962 L 111.018 285.135 L 111.259 289.239 L 111.983 290.687 L 116.811 292.618 L 119.225 294.067 L 120.915 294.067 L 124.053 293.825 L 125.984 293.101 L 125.984 292.618 L 125.743 291.894 L 125.26 289.963 L 125.019 288.756 L 125.502 287.307 L 126.226 286.1 L 127.191 280.307 L 127.674 279.583 L 129.364 279.1 L 132.261 280.065 L 134.433 280.307 L 134.916 280.79 L 135.158 281.514 L 135.399 282.238 L 135.399 283.204 L 135.399 283.928 L 135.64 285.618 L 135.399 287.307 L 135.64 288.273 L 136.365 288.756 L 137.33 288.997 L 138.296 288.997 L 139.986 289.721 L 141.434 290.687 L 142.882 291.894 L 144.814 293.825 L 146.503 296.722 L 146.986 297.688 L 147.71 299.619 L 148.435 300.826 L 146.503 301.791 L 146.021 302.274 L 144.331 304.447 L 143.848 304.688 L 143.365 304.93 L 143.365 304.688 L 142.158 303.481 L 138.537 301.55 L 136.847 301.067 L 135.64 301.55 L 134.192 302.998 L 132.261 305.895 L 130.33 310.723 L 133.951 314.344 L 135.158 315.31 L 135.64 316.275 L 135.882 316.758 L 133.951 319.655 L 129.847 322.552 L 129.123 323.035 L 128.881 324.724 L 128.64 325.449 L 127.191 327.38 L 125.26 329.794 L 124.777 330.518 L 124.536 331.001 L 123.812 331.484 L 122.605 331.966 L 120.915 331.484 L 119.949 331.725 L 118.984 332.932 L 118.018 335.346 L 115.846 337.036 L 110.776 341.864 L 105.948 345.243 L 104.741 346.45 L 102.086 350.554 L 102.086 352.485 L 104.258 353.21 L 104.983 353.934 L 105.948 354.658 L 106.19 355.865 L 106.431 356.831 L 106.914 357.555 L 107.879 358.52 L 108.604 359.727 L 108.845 360.452 L 109.086 361.417 L 110.293 362.383 L 114.156 363.59 Z" id="PT14" name="Santarém" style="fill: rgb(182, 106, 246);"/>
    <path d="M 120.191 259.305 L 118.501 262.685 L 117.777 263.409 L 116.811 264.133 L 116.087 264.133 L 115.363 264.616 L 114.639 265.581 L 113.914 266.547 L 113.432 267.03 L 112.466 266.788 L 108.604 267.995 L 108.121 268.478 L 107.638 269.202 L 107.638 269.685 L 107.638 270.409 L 107.155 270.892 L 106.431 271.858 L 106.431 272.341 L 106.914 273.789 L 103.293 273.306 L 102.569 273.065 L 102.569 273.548 L 102.569 274.513 L 103.051 276.686 L 102.569 276.927 L 100.879 276.686 L 98.948 277.651 L 97.741 277.893 L 94.12 279.1 L 92.671 279.583 L 92.43 279.1 L 92.188 278.617 L 92.188 277.651 L 91.464 274.996 L 91.223 273.548 L 90.016 268.961 L 88.809 269.202 L 87.602 270.168 L 86.878 270.168 L 85.671 270.651 L 81.325 273.789 L 79.636 274.513 L 78.67 274.755 L 76.98 274.272 L 73.118 276.203 L 72.635 276.927 L 72.152 277.893 L 72.152 278.858 L 72.394 280.79 L 72.394 282.238 L 72.635 282.962 L 73.118 283.686 L 73.842 284.169 L 74.566 285.135 L 75.049 286.825 L 74.566 288.032 L 73.842 288.514 L 73.359 289.239 L 72.394 289.721 L 70.462 291.17 L 71.428 294.791 L 71.428 296.722 L 72.394 299.86 L 71.911 300.826 L 69.738 303.723 L 69.014 303.964 L 68.048 303.964 L 67.324 303.481 L 66.841 303.481 L 66.359 303.964 L 66.359 304.93 L 66.359 305.654 L 67.083 306.861 L 67.083 307.102 L 67.083 307.344 L 67.083 307.826 L 66.841 308.551 L 65.634 309.516 L 61.289 309.033 L 55.737 309.516 L 53.082 310.482 L 51.875 311.689 L 48.978 317.724 L 48.254 318.689 L 47.529 319.172 L 45.84 319.655 L 43.908 323.035 L 43.667 324.242 L 44.15 326.414 L 44.391 330.035 L 41.977 329.311 L 40.287 328.587 L 39.08 328.345 L 37.873 328.587 L 37.391 328.828 L 36.425 329.311 L 34.735 331.725 L 32.563 335.105 L 30.873 337.277 L 28.942 338.726 L 27.493 337.519 L 25.562 330.518 L 24.838 329.311 L 24.114 328.345 L 23.631 328.104 L 23.148 328.104 L 21.941 327.863 L 21.217 328.345 L 17.596 330.759 L 14.216 330.759 L 13.492 330.759 L 12.768 328.104 L 11.802 325.69 L 8.664 322.552 L 7.94 321.345 L 8.905 321.103 L 13.009 322.069 L 19.286 317.965 L 20.975 316.517 L 22.907 316.275 L 23.872 317.482 L 24.838 317.965 L 25.803 316.758 L 25.079 315.31 L 23.631 313.861 L 25.079 311.689 L 27.01 309.275 L 27.735 308.068 L 29.424 307.102 L 31.838 305.412 L 33.287 303.24 L 34.011 301.55 L 35.942 298.17 L 36.184 296.239 L 35.942 294.067 L 36.908 290.928 L 37.632 286.825 L 44.391 268.237 L 52.357 244.821 L 52.84 245.063 L 55.013 246.27 L 55.978 246.752 L 57.185 247.235 L 60.082 247.959 L 60.806 247.718 L 61.772 246.994 L 63.945 246.028 L 68.531 246.511 L 70.221 246.511 L 72.152 246.994 L 73.118 247.718 L 74.566 249.166 L 75.532 250.373 L 75.773 250.615 L 76.256 250.615 L 77.222 250.615 L 77.704 250.373 L 77.946 250.132 L 79.153 247.959 L 79.877 247.477 L 80.601 247.235 L 81.084 246.994 L 81.567 246.994 L 82.291 247.477 L 82.774 247.959 L 83.498 250.615 L 83.498 251.58 L 83.498 253.512 L 83.739 254.236 L 83.981 254.96 L 84.464 255.443 L 85.188 254.719 L 86.636 252.787 L 89.05 251.339 L 91.947 248.925 L 93.637 249.166 L 93.878 248.442 L 94.602 248.684 L 95.327 249.166 L 96.292 251.58 L 97.258 253.753 L 97.499 255.201 L 97.499 256.167 L 97.016 256.891 L 96.292 257.374 L 95.809 257.857 L 96.534 258.098 L 97.258 258.098 L 100.879 256.65 L 103.776 253.27 L 104.741 253.029 L 106.19 253.753 L 106.914 253.512 L 107.397 253.029 L 107.638 252.063 L 107.155 251.339 L 106.19 250.373 L 105.948 250.132 L 105.707 249.166 L 105.707 248.442 L 106.914 246.27 L 110.776 242.89 L 113.432 244.097 L 116.087 240.476 L 117.294 241.2 L 117.777 241.683 L 118.26 242.407 L 118.501 243.131 L 118.018 246.511 L 118.26 248.442 L 121.881 254.236 L 120.915 254.96 L 120.432 255.443 L 120.191 256.65 L 120.432 257.374 L 120.432 257.857 L 120.674 257.857 L 120.191 259.305 Z" id="PT10" name="Leiria" style="fill: rgb(182, 106, 246);"/>
    <path d="M 150.366 223.819 L 148.435 228.165 L 148.193 229.13 L 148.676 230.579 L 149.159 231.303 L 150.124 232.027 L 151.573 233.958 L 153.987 235.648 L 154.228 236.855 L 154.47 237.579 L 154.47 238.303 L 154.47 238.786 L 153.987 239.51 L 153.263 240.235 L 151.573 241.442 L 150.607 241.683 L 150.124 241.442 L 149.642 240.959 L 149.642 240.717 L 149.159 240.476 L 148.676 240.717 L 148.193 241.442 L 148.435 243.373 L 148.193 245.545 L 146.503 244.338 L 145.779 243.856 L 144.814 243.614 L 143.848 243.614 L 142.641 243.856 L 140.468 245.063 L 139.503 246.028 L 139.261 246.994 L 139.503 248.684 L 139.503 249.166 L 138.537 249.891 L 136.847 249.891 L 136.123 249.891 L 135.64 250.373 L 134.433 252.063 L 133.951 252.305 L 133.709 252.305 L 132.985 252.063 L 132.502 251.822 L 131.778 252.063 L 131.295 252.305 L 130.812 252.787 L 129.605 253.029 L 129.123 253.029 L 128.881 253.753 L 128.881 254.236 L 128.398 254.719 L 126.95 254.719 L 125.019 255.201 L 124.053 256.408 L 122.846 256.65 L 122.605 256.65 L 121.881 257.133 L 121.639 257.857 L 120.191 259.305 L 120.674 257.857 L 120.432 257.857 L 120.432 257.374 L 120.191 256.65 L 120.432 255.443 L 120.915 254.96 L 121.881 254.236 L 118.26 248.442 L 118.018 246.511 L 118.501 243.131 L 118.26 242.407 L 117.777 241.683 L 117.294 241.2 L 116.087 240.476 L 113.432 244.097 L 110.776 242.89 L 106.914 246.27 L 105.707 248.442 L 105.707 249.166 L 105.948 250.132 L 106.19 250.373 L 107.155 251.339 L 107.638 252.063 L 107.397 253.029 L 106.914 253.512 L 106.19 253.753 L 104.741 253.029 L 103.776 253.27 L 100.879 256.65 L 97.258 258.098 L 96.534 258.098 L 95.809 257.857 L 96.292 257.374 L 97.016 256.891 L 97.499 256.167 L 97.499 255.201 L 97.258 253.753 L 96.292 251.58 L 95.327 249.166 L 94.602 248.684 L 93.878 248.442 L 93.637 249.166 L 91.947 248.925 L 89.05 251.339 L 86.636 252.787 L 85.188 254.719 L 84.464 255.443 L 83.981 254.96 L 83.739 254.236 L 83.498 253.512 L 83.498 251.58 L 83.498 250.615 L 82.774 247.959 L 82.291 247.477 L 81.567 246.994 L 81.084 246.994 L 80.601 247.235 L 79.877 247.477 L 79.153 247.959 L 77.946 250.132 L 77.704 250.373 L 77.222 250.615 L 76.256 250.615 L 75.773 250.615 L 75.532 250.373 L 74.566 249.166 L 73.118 247.718 L 72.152 246.994 L 70.221 246.511 L 68.531 246.511 L 63.945 246.028 L 61.772 246.994 L 60.806 247.718 L 60.082 247.959 L 57.185 247.235 L 55.978 246.752 L 55.013 246.27 L 52.84 245.063 L 52.357 244.821 L 55.254 236.131 L 56.703 234.441 L 57.668 235.889 L 59.117 236.614 L 62.738 236.855 L 62.738 235.889 L 61.289 234.441 L 59.841 233.475 L 58.392 232.993 L 54.289 232.51 L 52.84 231.544 L 51.875 229.854 L 51.875 227.44 L 52.84 224.061 L 55.496 218.75 L 61.531 195.817 L 62.496 190.265 L 62.496 190.506 L 72.152 200.404 L 75.049 200.886 L 75.773 199.679 L 76.256 197.748 L 77.946 194.851 L 81.325 197.265 L 80.843 199.921 L 80.843 201.128 L 81.325 203.059 L 81.808 204.025 L 82.532 204.266 L 83.257 203.783 L 84.705 202.818 L 86.153 202.335 L 87.119 202.093 L 87.602 204.507 L 88.567 206.439 L 88.809 207.163 L 88.567 207.887 L 88.326 209.577 L 88.085 209.818 L 87.602 210.301 L 87.36 210.542 L 86.878 211.025 L 86.395 211.749 L 85.671 213.439 L 85.429 214.646 L 85.429 215.612 L 85.671 216.336 L 86.153 217.06 L 91.223 217.543 L 91.947 217.06 L 92.671 216.336 L 93.154 215.37 L 95.085 212.715 L 95.568 211.749 L 96.292 211.025 L 97.016 210.784 L 98.948 210.784 L 99.913 209.577 L 99.913 208.611 L 100.637 207.646 L 101.603 208.128 L 102.569 208.853 L 105.224 209.577 L 107.155 211.025 L 108.604 212.232 L 110.052 212.956 L 110.776 213.681 L 111.259 213.681 L 111.5 213.198 L 111.742 212.715 L 111.742 212.232 L 111.983 211.749 L 112.466 211.508 L 116.087 210.784 L 121.156 211.508 L 127.674 206.68 L 132.502 204.507 L 136.365 201.852 L 137.813 201.128 L 139.986 197.748 L 142.882 195.576 L 143.848 194.369 L 144.814 193.644 L 146.745 193.162 L 147.469 195.817 L 148.193 196.3 L 148.676 197.024 L 148.676 197.99 L 148.435 198.955 L 147.952 199.679 L 147.228 200.162 L 146.503 200.404 L 145.779 200.886 L 145.538 201.852 L 146.262 202.818 L 146.986 203.3 L 148.435 203.783 L 148.917 204.266 L 148.917 205.232 L 149.642 209.335 L 150.124 210.301 L 151.331 211.508 L 151.573 211.991 L 151.573 212.956 L 149.4 214.163 L 148.676 215.129 L 148.193 216.336 L 147.71 218.026 L 146.745 220.44 L 149.159 221.647 L 150.366 223.819 Z" id="PT06" name="Coimbra" style="fill: rgb(182, 106, 246);"/>
    <path d="M 100.637 207.646 L 99.913 208.611 L 99.913 209.577 L 98.948 210.784 L 97.016 210.784 L 96.292 211.025 L 95.568 211.749 L 95.085 212.715 L 93.154 215.37 L 92.671 216.336 L 91.947 217.06 L 91.223 217.543 L 86.153 217.06 L 85.671 216.336 L 85.429 215.612 L 85.429 214.646 L 85.671 213.439 L 86.395 211.749 L 86.878 211.025 L 87.36 210.542 L 87.602 210.301 L 88.085 209.818 L 88.326 209.577 L 88.567 207.887 L 88.809 207.163 L 88.567 206.439 L 87.602 204.507 L 87.119 202.093 L 86.153 202.335 L 84.705 202.818 L 83.257 203.783 L 82.532 204.266 L 81.808 204.025 L 81.325 203.059 L 80.843 201.128 L 80.843 199.921 L 81.325 197.265 L 77.946 194.851 L 76.256 197.748 L 75.773 199.679 L 75.049 200.886 L 72.152 200.404 L 62.496 190.506 L 62.496 190.265 L 62.738 188.816 L 64.427 183.506 L 65.393 176.746 L 65.634 176.505 L 66.117 176.022 L 66.117 178.436 L 66.117 179.16 L 67.807 176.264 L 69.255 175.298 L 70.462 176.022 L 70.945 176.022 L 70.945 175.298 L 70.704 175.057 L 70.462 174.332 L 70.221 173.608 L 70.462 172.884 L 71.187 172.401 L 71.669 172.884 L 72.152 173.367 L 72.635 173.85 L 73.359 173.367 L 74.083 172.643 L 75.29 170.711 L 73.842 169.746 L 73.118 168.297 L 73.359 167.09 L 74.808 166.608 L 76.98 166.366 L 78.429 165.883 L 79.877 164.918 L 81.325 163.469 L 79.636 163.711 L 77.463 164.676 L 75.773 165.159 L 75.29 165.401 L 74.808 165.401 L 72.876 164.435 L 72.152 163.469 L 71.428 160.331 L 74.808 155.745 L 74.083 153.089 L 73.842 155.02 L 73.359 156.71 L 72.635 157.193 L 72.152 155.503 L 70.945 157.917 L 69.98 160.814 L 69.497 164.194 L 69.255 167.09 L 68.773 168.78 L 67.807 171.677 L 66.6 174.091 L 65.634 175.298 L 74.083 135.95 L 74.083 133.294 L 74.808 133.053 L 78.67 132.57 L 80.118 133.536 L 82.774 132.57 L 84.222 131.605 L 85.188 131.605 L 86.153 131.846 L 86.878 132.57 L 88.085 133.294 L 89.05 133.294 L 89.533 132.812 L 90.257 131.122 L 90.499 130.639 L 92.188 128.708 L 93.878 130.639 L 94.361 131.363 L 94.844 132.57 L 96.534 133.777 L 97.258 133.777 L 97.499 133.294 L 97.499 132.57 L 97.016 131.846 L 97.016 131.122 L 97.016 130.639 L 99.189 129.432 L 101.12 130.156 L 105.224 127.259 L 105.465 126.777 L 105.948 125.57 L 111.259 128.949 L 111.5 129.673 L 111.742 130.88 L 111.742 131.605 L 111.742 134.26 L 118.26 137.398 L 119.225 137.398 L 120.432 137.157 L 121.156 135.708 L 121.398 135.226 L 121.639 134.984 L 122.846 134.019 L 123.329 134.019 L 123.57 134.501 L 123.812 134.984 L 123.812 135.226 L 123.57 135.467 L 123.57 135.95 L 120.674 140.054 L 120.432 141.261 L 119.949 142.709 L 120.191 143.433 L 120.432 144.882 L 120.915 148.02 L 121.639 149.951 L 121.639 151.399 L 121.156 152.124 L 120.432 152.365 L 119.708 152.365 L 118.984 152.124 L 118.26 151.399 L 117.535 151.158 L 116.57 151.158 L 114.88 152.124 L 113.914 152.124 L 112.949 152.124 L 112.225 151.641 L 109.569 151.882 L 110.535 155.503 L 110.293 156.227 L 109.569 157.434 L 107.879 161.297 L 105.707 163.711 L 103.776 165.401 L 102.81 166.849 L 102.81 167.332 L 102.81 167.815 L 103.051 168.539 L 103.293 169.263 L 104.5 170.711 L 105.224 171.677 L 105.465 172.401 L 105.465 175.539 L 106.19 177.229 L 106.431 177.471 L 108.121 178.195 L 109.569 179.402 L 105.948 180.609 L 105.465 181.333 L 104.983 182.057 L 104.983 183.023 L 105.948 185.437 L 106.431 187.609 L 106.914 188.334 L 107.638 188.816 L 108.121 189.541 L 109.086 191.23 L 104.258 193.162 L 102.327 194.851 L 102.086 195.334 L 102.327 196.3 L 103.293 197.748 L 103.293 199.197 L 102.81 200.162 L 100.396 204.266 L 100.637 207.646 Z" id="PT01" name="Aveiro" style="fill: rgb(182, 106, 246);"/>
    <path d="M 133.468 92.256 L 134.916 93.946 L 134.916 95.153 L 134.916 96.119 L 135.64 97.084 L 136.847 97.809 L 139.261 99.498 L 138.779 101.188 L 139.261 102.878 L 140.71 105.533 L 141.917 106.258 L 142.158 106.499 L 140.951 111.327 L 140.951 113.982 L 140.468 116.879 L 136.606 119.293 L 125.984 122.914 L 123.329 123.156 L 114.639 122.673 L 111.742 123.156 L 105.948 125.57 L 105.465 126.777 L 105.224 127.259 L 101.12 130.156 L 99.189 129.432 L 97.016 130.639 L 97.016 131.122 L 97.016 131.846 L 97.499 132.57 L 97.499 133.294 L 97.258 133.777 L 96.534 133.777 L 94.844 132.57 L 94.361 131.363 L 93.878 130.639 L 92.188 128.708 L 90.499 130.639 L 90.257 131.122 L 89.533 132.812 L 89.05 133.294 L 88.085 133.294 L 86.878 132.57 L 86.153 131.846 L 85.188 131.605 L 84.222 131.605 L 82.774 132.57 L 80.118 133.536 L 78.67 132.57 L 74.808 133.053 L 74.083 133.294 L 74.083 131.605 L 72.876 123.88 L 73.118 119.776 L 74.566 118.328 L 74.566 117.603 L 71.428 116.638 L 69.738 113.5 L 68.531 109.396 L 66.841 106.258 L 67.324 104.568 L 67.083 103.361 L 66.6 102.154 L 66.117 100.705 L 66.117 97.084 L 65.876 95.877 L 65.152 95.636 L 64.91 94.429 L 64.427 93.222 L 63.22 91.049 L 62.738 89.36 L 62.738 87.911 L 62.496 84.532 L 63.462 80.911 L 65.634 80.911 L 67.566 82.118 L 69.98 83.083 L 72.152 83.325 L 72.876 83.566 L 73.601 84.29 L 74.325 84.773 L 75.773 86.463 L 76.98 87.187 L 77.946 87.428 L 78.911 88.153 L 79.153 88.877 L 78.911 89.601 L 78.429 89.842 L 77.463 90.084 L 76.739 91.049 L 76.98 91.774 L 77.222 93.463 L 77.704 94.188 L 78.429 94.67 L 78.67 94.67 L 79.636 94.429 L 84.464 94.429 L 85.188 94.188 L 85.912 93.946 L 86.636 93.463 L 87.36 92.981 L 88.809 92.015 L 90.499 91.532 L 91.464 91.532 L 92.188 91.774 L 92.671 92.256 L 94.844 92.739 L 97.741 92.015 L 101.12 91.532 L 101.844 91.774 L 103.051 92.498 L 103.776 92.498 L 105.707 91.774 L 106.431 91.532 L 109.086 90.325 L 110.776 89.118 L 112.225 86.946 L 116.57 88.635 L 118.26 90.567 L 118.501 91.049 L 118.501 92.256 L 121.639 94.67 L 124.295 95.877 L 125.26 95.636 L 127.191 96.602 L 128.157 97.567 L 129.123 97.326 L 129.605 97.084 L 130.33 96.602 L 130.812 96.119 L 131.295 95.636 L 131.778 95.153 L 132.261 94.912 L 132.744 94.429 L 132.985 93.946 L 133.226 93.463 L 133.468 92.256 Z" id="PT13" name="Porto" style="fill: rgb(182, 106, 246);"/>
    <path d="M 192.611 116.638 L 190.197 124.363 L 189.473 127.742 L 189.231 129.915 L 189.714 133.053 L 188.507 133.777 L 186.334 133.536 L 186.093 134.019 L 186.334 134.743 L 186.817 136.191 L 187.541 136.674 L 188.507 137.398 L 189.231 137.64 L 189.714 138.364 L 189.714 139.088 L 189.714 140.536 L 188.99 142.468 L 186.093 145.123 L 182.955 144.157 L 181.748 144.882 L 182.231 147.054 L 182.472 147.778 L 182.713 148.985 L 182.713 150.192 L 180.782 154.779 L 179.817 156.227 L 178.368 155.986 L 177.885 155.262 L 177.403 154.779 L 174.264 151.641 L 173.057 150.675 L 172.092 150.192 L 169.919 150.192 L 168.954 150.675 L 168.229 151.399 L 167.988 151.882 L 167.022 155.02 L 166.057 156.71 L 165.091 158.159 L 164.608 158.883 L 164.85 159.848 L 165.574 160.573 L 167.747 162.504 L 168.229 163.228 L 168.471 163.952 L 168.471 164.676 L 168.229 165.401 L 167.264 166.608 L 168.229 168.297 L 170.161 169.504 L 171.609 171.677 L 171.126 174.574 L 169.919 176.022 L 167.988 182.299 L 168.229 184.713 L 162.436 185.678 L 158.815 187.127 L 155.918 189.058 L 153.504 190.023 L 151.09 191.713 L 150.124 191.955 L 147.469 192.437 L 146.745 193.162 L 144.814 193.644 L 143.848 194.369 L 142.882 195.576 L 139.986 197.748 L 137.813 201.128 L 136.365 201.852 L 132.502 204.507 L 127.674 206.68 L 121.156 211.508 L 116.087 210.784 L 112.466 211.508 L 111.983 211.749 L 111.742 212.232 L 111.742 212.715 L 111.5 213.198 L 111.259 213.681 L 110.776 213.681 L 110.052 212.956 L 108.604 212.232 L 107.155 211.025 L 105.224 209.577 L 102.569 208.853 L 101.603 208.128 L 100.637 207.646 L 100.396 204.266 L 102.81 200.162 L 103.293 199.197 L 103.293 197.748 L 102.327 196.3 L 102.086 195.334 L 102.327 194.851 L 104.258 193.162 L 109.086 191.23 L 108.121 189.541 L 107.638 188.816 L 106.914 188.334 L 106.431 187.609 L 105.948 185.437 L 104.983 183.023 L 104.983 182.057 L 105.465 181.333 L 105.948 180.609 L 109.569 179.402 L 108.121 178.195 L 106.431 177.471 L 106.19 177.229 L 105.465 175.539 L 105.465 172.401 L 105.224 171.677 L 104.5 170.711 L 103.293 169.263 L 103.051 168.539 L 102.81 167.815 L 102.81 167.332 L 102.81 166.849 L 103.776 165.401 L 105.707 163.711 L 107.879 161.297 L 109.569 157.434 L 110.293 156.227 L 110.535 155.503 L 109.569 151.882 L 112.225 151.641 L 112.949 152.124 L 113.914 152.124 L 114.88 152.124 L 116.57 151.158 L 117.535 151.158 L 118.26 151.399 L 118.984 152.124 L 119.708 152.365 L 120.432 152.365 L 121.156 152.124 L 121.639 151.399 L 121.639 149.951 L 120.915 148.02 L 120.432 144.882 L 120.191 143.433 L 119.949 142.709 L 120.432 141.261 L 120.674 140.054 L 123.57 135.95 L 123.57 135.467 L 123.812 135.226 L 123.812 134.984 L 123.57 134.501 L 123.329 134.019 L 122.846 134.019 L 121.639 134.984 L 121.398 135.226 L 121.156 135.708 L 120.432 137.157 L 119.225 137.398 L 118.26 137.398 L 111.742 134.26 L 111.742 131.605 L 111.742 130.88 L 111.5 129.673 L 111.259 128.949 L 105.948 125.57 L 111.742 123.156 L 114.639 122.673 L 123.329 123.156 L 125.984 122.914 L 136.606 119.293 L 140.468 116.879 L 145.055 113.741 L 146.745 113.5 L 147.952 114.224 L 150.124 116.155 L 151.09 117.121 L 152.538 117.362 L 154.228 117.603 L 155.918 117.362 L 157.366 116.638 L 160.022 114.948 L 161.229 114.224 L 162.677 114.224 L 162.919 114.224 L 166.54 114.465 L 170.643 113.982 L 181.024 110.12 L 182.231 110.12 L 183.679 111.086 L 186.334 114.948 L 187.3 115.914 L 190.197 116.879 L 192.611 116.638 Z" id="PT18" name="Viseu" style="fill: rgb(182, 106, 246);"/>
  </g>
  <g id="points">
    <circle class="30.635461623995162|-30.03095379698591" cx="90.9" cy="547.8" id="0"/>
    <circle class="35.48521658364194|-17.491476654031555" cx="545.5" cy="338" id="1"/>
    <circle class="41.54741028320043|-7.4598949396680725" cx="909.1" cy="56.8" id="2"/>
  </g>
  <g id="label_points">
    <circle class="Évora" cx="899.9" cy="197.6" id="PT-2"/>
    <circle class="Portalegre" cx="902.5" cy="164.7" id="PT-3"/>
    <circle class="Viana do Castelo" cx="871" cy="39.5" id="PT-4"/>
    <circle class="Castelo Branco" cx="909" cy="131.9" id="PT-4"/>
    <circle class="Guarda" cx="920.7" cy="98.2" id="PT-4"/>
    <circle class="Bragança" cx="930.2" cy="57.5" id="PT-4"/>
    <circle class="Vila Real" cx="905" cy="56.3" id="PT-4"/>
    <circle class="Braga" cx="876.8" cy="55.7" id="PT-4"/>
    <circle class="Faro" cx="894.4" cy="259.8" id="PT-4"/>
    <circle class="Beja" cx="893.7" cy="231" id="PT-4"/>
    <circle class="Setúbal" cx="869" cy="213.9" id="PT-4"/>
    <circle class="Lisboa" cx="845.5" cy="177.2" id="PT-4"/>
    <circle class="Santarém" cx="870.7" cy="162.4" id="PT-4"/>
    <circle class="Leiria" cx="859" cy="143.9" id="PT-4"/>
    <circle class="Coimbra" cx="875.3" cy="123.3" id="PT-4"/>
    <circle class="Aveiro" cx="872.5" cy="101.7" id="PT-4"/>
    <circle class="Porto" cx="876.1" cy="73.1" id="PT-4"/>
    <circle class="Madeira" cx="565.2" cy="458.1" id="PT-4"/>
    <circle class="Azores" cx="254.8" cy="234.3" id="PT-4"/>
    <circle class="Viseu" cx="894.2" cy="93.9" id="PT-4"/>
  </g>
</svg>
